<?xml version="1.0" standalone="no"?>
<!DOCTYPE svg PUBLIC "-//W3C//DTD SVG 20010904//EN"
 "http://www.w3.org/TR/2001/REC-SVG-20010904/DTD/svg10.dtd">
<svg version="1.0" xmlns="http://www.w3.org/2000/svg"
 width="1024.000000pt" height="500.000000pt" viewBox="0 0 1024.000000 500.000000"
 preserveAspectRatio="xMidYMid meet">

<g transform="translate(0.000000,500.000000) scale(0.100000,-0.100000)"
fill="#000000" stroke="none">
<path d="M4990 3444 c-79 -21 -171 -66 -269 -132 -102 -68 -302 -262 -360
-349 -194 -292 -244 -644 -135 -957 107 -307 387 -546 719 -615 143 -29 336
-20 508 23 124 32 217 73 317 140 50 33 190 164 190 178 0 4 -25 8 -56 8 -53
0 -59 3 -90 38 -32 35 -33 36 -24 9 19 -53 11 -60 -24 -23 -53 57 -70 41 -25
-24 24 -35 9 -60 -35 -60 -18 0 -73 -20 -127 -46 -93 -46 -95 -47 -189 -45
-52 1 -120 4 -150 7 l-55 7 -233 231 c-128 127 -237 233 -242 234 -6 2 -10 7
-10 12 0 4 30 -3 68 -17 83 -30 75 -21 -59 60 -103 64 -169 90 -169 68 0 -6
-4 -11 -10 -11 -5 0 -10 9 -10 20 0 15 7 20 24 20 33 0 41 16 38 75 -3 47 0
56 42 112 51 67 54 76 28 65 -59 -24 -92 -86 -92 -174 0 -34 -4 -48 -14 -48
-9 0 -15 23 -19 83 -13 166 -14 165 76 376 46 108 99 236 118 285 33 85 36 89
79 107 89 38 167 83 273 156 70 48 120 76 140 78 34 3 87 -19 87 -36 0 -6 -16
-30 -36 -53 -34 -41 -39 -43 -75 -39 -49 7 -58 -12 -35 -69 16 -41 15 -42 -13
-87 -50 -80 -65 -150 -65 -301 1 -218 39 -329 181 -524 82 -113 221 -276 235
-276 6 0 21 11 34 25 13 14 32 25 43 25 21 0 66 -47 76 -80 3 -11 14 -20 24
-20 10 0 34 -3 52 -6 l34 -6 -45 42 -45 41 36 -5 c20 -4 54 -15 77 -26 56 -27
62 -26 62 17 0 33 -1 35 -13 18 -13 -16 -15 -14 -27 31 -14 48 -14 48 -18 17
-4 -37 -9 -39 -40 -17 -20 14 -22 14 -22 0 0 -12 -10 -15 -40 -14 l-40 1 0 43
c0 23 -2 48 -5 56 -3 8 13 22 42 38 l48 25 3 71 c3 68 1 74 -28 105 -20 23
-30 44 -30 65 0 44 -9 64 -26 57 -8 -3 -14 1 -14 11 0 11 -9 16 -32 16 -31 -1
-32 -1 -14 -15 11 -8 24 -15 30 -15 6 0 5 -5 -2 -12 -7 -7 -12 -22 -12 -34 0
-42 -11 -54 -49 -54 -49 0 -56 -7 -85 -73 -14 -31 -30 -57 -35 -57 -5 0 -14
14 -20 31 -9 27 -7 39 20 95 17 36 41 71 52 79 29 20 15 30 -20 13 -18 -8 -39
-34 -58 -70 -16 -32 -33 -58 -36 -58 -4 0 -12 21 -19 46 -17 60 -8 74 66 100
106 37 104 34 104 123 0 65 3 81 20 96 27 24 26 29 -15 74 -32 35 -35 44 -35
101 0 52 4 65 23 82 16 14 19 21 9 25 -8 3 -29 18 -47 34 -40 35 -64 39 -30 4
14 -13 25 -28 25 -33 0 -4 -35 -53 -78 -109 -81 -103 -108 -164 -144 -320 -6
-29 -15 -53 -19 -53 -4 0 -19 24 -33 53 -22 44 -26 66 -26 132 1 44 0 94 -2
110 -3 29 -1 30 47 38 105 17 100 11 102 112 2 87 3 91 33 118 35 31 37 24
-27 101 -38 46 -42 82 -13 119 11 14 20 28 20 31 0 3 -19 19 -42 36 -23 17
-52 45 -64 64 -43 64 -121 80 -234 50z m165 -28 c14 -9 25 -20 25 -25 0 -8
-372 -251 -385 -251 -11 0 4 97 21 139 18 43 67 96 109 119 78 41 182 49 230
18z m99 -297 c9 -48 7 -164 -4 -193 -9 -25 -56 -56 -85 -56 -25 0 -19 103 9
173 27 65 52 107 65 107 5 0 11 -14 15 -31z m168 -335 c-3 -32 2 -43 24 -63
24 -21 26 -28 22 -77 -5 -64 -28 -99 -84 -131 -62 -36 -64 -34 -64 72 0 101 8
130 54 204 33 51 52 49 48 -5z m243 -455 c-5 -14 1 -26 20 -41 21 -16 25 -27
23 -56 -3 -40 -36 -70 -89 -81 -27 -5 -35 -12 -37 -34 -2 -19 -9 -27 -23 -27
-15 0 -19 7 -19 36 0 45 15 74 40 74 27 0 25 26 -2 35 l-23 7 25 7 c16 5 24
13 22 24 -2 9 9 38 24 63 22 38 29 43 36 30 5 -9 6 -26 3 -37z m-969 -301 c44
-33 114 -101 114 -111 0 -12 -88 39 -123 72 -60 55 -52 85 9 39z"/>
<path d="M6550 3100 c-37 -37 -20 -93 30 -105 34 -8 80 27 80 61 0 31 -33 64
-65 64 -14 0 -34 -9 -45 -20z"/>
<path d="M6706 3098 c-9 -12 -16 -31 -16 -41 0 -68 88 -87 120 -26 33 61 -64
124 -104 67z"/>
<path d="M7000 2755 l0 -355 422 0 c420 0 422 0 454 22 48 33 57 60 64 198 4
69 10 133 14 143 7 15 1 17 -73 17 l-81 0 10 -26 c6 -14 10 -78 10 -143 0
-105 -2 -121 -21 -145 -17 -22 -28 -26 -70 -26 -27 0 -49 5 -49 10 0 6 4 10 9
10 19 0 31 68 31 179 0 78 4 121 12 129 9 9 -6 12 -68 12 l-79 0 3 -149 c3
-140 2 -151 -17 -170 -16 -16 -34 -21 -71 -21 l-49 0 19 33 c15 25 20 57 23
152 2 66 8 128 12 138 6 15 -1 17 -74 17 l-81 0 10 -26 c6 -14 10 -78 10 -143
0 -105 -2 -121 -21 -145 -20 -25 -25 -26 -115 -26 l-95 0 3 335 3 335 -72 0
-73 0 0 -355z"/>
<path d="M8072 2753 l3 -358 63 0 64 0 -1 295 c0 162 3 323 7 358 l8 62 -73 0
-73 0 2 -357z"/>
<path d="M9620 3091 c13 -26 14 -595 0 -621 -5 -10 -23 -23 -39 -28 -23 -8
-28 -15 -24 -31 6 -24 28 -26 85 -11 44 13 94 66 107 117 6 21 12 163 13 316
l3 277 -78 0 c-74 0 -77 -1 -67 -19z"/>
<path d="M9850 2750 l0 -360 65 0 c45 0 65 4 65 13 0 6 1 168 2 360 l3 347
-67 0 -68 0 0 -360z"/>
<path d="M100 2980 c0 -15 6 -20 29 -20 17 0 31 -6 35 -16 11 -28 7 -464 -4
-485 -6 -11 -21 -19 -35 -19 -18 0 -25 -5 -25 -20 0 -20 5 -21 103 -18 83 2
102 6 102 18 0 8 -11 16 -25 18 -46 6 -50 23 -50 216 l0 181 59 -130 c116
-259 140 -307 153 -303 7 3 55 102 108 222 l95 217 3 -187 c3 -199 0 -211 -46
-216 -16 -2 -27 -9 -27 -18 0 -12 22 -15 128 -18 122 -2 127 -2 127 18 0 14
-7 20 -24 20 -48 0 -51 16 -51 261 1 243 4 259 51 259 17 0 24 6 24 20 0 20
-5 21 -87 18 l-86 -3 -74 -165 c-41 -91 -82 -184 -91 -207 -9 -24 -20 -43 -24
-43 -4 0 -17 21 -29 48 -12 26 -55 119 -95 207 l-73 160 -85 3 c-81 3 -86 2
-86 -18z"/>
<path d="M3601 2881 c-11 -21 -36 -49 -55 -60 -44 -28 -54 -51 -21 -51 l25 0
0 -149 c0 -82 4 -161 10 -175 24 -64 106 -71 163 -15 37 38 25 58 -20 32 -26
-14 -33 -15 -47 -4 -13 11 -16 38 -16 162 l0 148 43 3 c34 2 42 7 42 23 0 16
-8 21 -42 23 l-43 3 0 50 c0 27 -4 49 -10 49 -5 0 -19 -18 -29 -39z"/>
<path d="M9240 2900 c-59 -13 -134 -65 -161 -114 -19 -34 -24 -61 -29 -163 -5
-103 -9 -127 -26 -150 l-21 -28 -139 -3 -139 -3 0 135 0 134 -31 44 c-44 60
-101 88 -178 87 -74 -1 -116 -15 -156 -53 -58 -54 -77 -121 -59 -207 22 -101
108 -157 228 -147 l54 5 -7 -59 c-6 -65 -31 -121 -70 -157 -22 -21 -38 -25
-111 -29 -82 -4 -85 -5 -85 -28 0 -24 2 -24 93 -24 171 1 247 52 296 197 l20
58 164 2 c252 2 271 17 279 211 4 94 9 125 27 160 52 103 174 110 231 15 19
-31 23 -53 24 -123 0 -110 -24 -163 -83 -181 -49 -15 -98 -6 -145 26 l-36 24
0 -23 c0 -70 161 -115 260 -73 78 33 114 89 125 192 13 117 -29 216 -108 254
-51 25 -151 34 -217 21z m-679 -127 c26 -22 42 -127 29 -192 -17 -88 -65 -122
-117 -86 -63 44 -54 269 11 295 25 10 54 3 77 -17z"/>
<path d="M6445 2852 l-30 -16 51 -7 c76 -10 80 -17 34 -48 -119 -80 -145 -248
-59 -377 15 -21 47 -46 83 -64 53 -27 69 -30 150 -30 74 0 100 4 142 24 69 32
120 94 135 164 26 126 -16 232 -115 293 -34 21 -28 26 50 38 l49 7 -32 17
c-40 21 -126 22 -183 2 -38 -13 -47 -13 -87 0 -58 20 -150 19 -188 -3z m303
-102 c87 -53 105 -251 31 -335 -85 -96 -221 -47 -249 92 -23 108 21 230 90
256 34 12 96 6 128 -13z"/>
<path d="M1017 2816 c-68 -25 -109 -78 -128 -165 -22 -103 29 -213 115 -246
100 -38 196 -1 243 93 34 69 40 127 19 188 -38 112 -146 168 -249 130z m97
-41 c58 -38 89 -221 51 -295 -43 -84 -139 -60 -170 42 -49 167 21 317 119 253z"/>
<path d="M2502 2822 c-12 -4 -38 -20 -57 -35 -52 -41 -46 -107 10 -107 30 0
45 19 45 57 0 42 35 63 75 45 21 -10 25 -18 25 -57 0 -25 0 -48 1 -52 0 -4
-26 -19 -58 -33 -126 -53 -171 -116 -139 -193 9 -24 25 -41 43 -48 36 -13 101
-4 132 20 24 19 25 19 44 -5 11 -15 29 -24 46 -24 35 0 81 35 81 61 0 17 -3
18 -21 8 -33 -17 -39 2 -39 148 0 139 -8 173 -45 197 -27 18 -110 28 -143 18z
m104 -273 c-2 -55 -6 -64 -30 -82 -58 -42 -122 23 -79 81 21 28 92 74 104 66
4 -2 6 -32 5 -65z"/>
<path d="M2885 2823 c-31 -8 -73 -53 -80 -84 -15 -68 15 -114 113 -170 83 -48
103 -101 50 -130 -49 -27 -119 16 -133 81 -4 17 -13 30 -21 30 -11 0 -14 -17
-14 -74 l0 -75 33 1 c17 0 54 -3 80 -7 97 -15 166 47 154 139 -6 44 -51 93
-113 122 -49 24 -74 52 -74 85 0 22 6 32 25 41 38 17 72 -3 96 -57 11 -25 24
-45 29 -45 6 0 10 31 10 70 0 66 -1 70 -22 68 -13 0 -43 2 -68 5 -25 3 -54 3
-65 0z"/>
<path d="M3239 2821 c-69 -22 -112 -79 -89 -120 24 -46 97 -15 84 36 -13 47
62 72 90 31 19 -27 22 -108 4 -108 -30 0 -136 -60 -166 -94 -26 -29 -32 -45
-32 -80 0 -37 5 -48 32 -71 27 -23 39 -26 74 -22 23 2 57 15 75 28 22 16 34
19 37 11 7 -22 33 -42 53 -42 31 0 77 28 84 51 9 27 1 33 -23 20 -11 -6 -22
-7 -26 -4 -3 3 -6 64 -6 135 0 140 -11 185 -52 212 -30 19 -104 28 -139 17z
m101 -274 c0 -59 -2 -64 -29 -80 -36 -21 -50 -21 -73 0 -21 19 -24 61 -5 86
16 23 68 55 90 56 14 1 17 -8 17 -62z"/>
<path d="M1297 2813 c-13 -12 -7 -21 18 -27 37 -9 45 -42 45 -188 0 -144 10
-177 62 -199 36 -15 94 -5 130 21 35 26 38 25 38 -6 0 -17 4 -24 13 -21 6 2
38 12 70 21 36 10 57 22 57 31 0 8 -8 15 -18 15 -38 0 -42 18 -42 192 l0 169
-72 -3 c-77 -3 -96 -17 -48 -35 l30 -11 0 -140 0 -139 -33 -17 c-18 -10 -43
-16 -57 -15 -42 6 -50 40 -50 207 l0 152 -68 0 c-38 0 -72 -3 -75 -7z"/>
<path d="M1757 2813 c-4 -3 2 -17 14 -29 19 -21 51 -97 131 -312 23 -60 35
-82 47 -80 9 2 34 47 61 110 25 59 48 108 51 108 3 0 25 -49 48 -110 25 -64
48 -110 56 -110 13 0 44 71 102 235 33 92 61 152 73 160 5 3 10 13 10 21 0 11
-14 14 -60 14 -64 0 -74 -10 -39 -39 l21 -16 -41 -110 c-23 -60 -43 -110 -45
-112 -5 -5 -86 205 -86 223 0 7 11 16 25 20 14 4 24 11 22 18 -6 17 -187 21
-187 4 0 -7 9 -19 19 -25 11 -7 29 -33 40 -58 l20 -46 -31 -70 c-17 -38 -34
-69 -38 -69 -4 0 -26 51 -49 113 -40 111 -41 112 -21 129 36 30 24 38 -58 38
-43 0 -82 -3 -85 -7z"/>
<path d="M5016 2443 c18 -13 54 -76 54 -96 0 -10 43 -68 96 -129 52 -61 101
-119 107 -129 7 -11 20 -19 30 -19 12 0 -17 41 -97 133 -68 77 -116 141 -116
153 0 30 -42 88 -65 92 -12 2 -16 0 -9 -5z"/>
<path d="M9917 2004 c-8 -8 1 -24 14 -24 5 0 9 7 9 15 0 15 -12 20 -23 9z"/>
<path d="M8350 1976 c0 -9 7 -16 16 -16 17 0 14 22 -4 28 -7 2 -12 -3 -12 -12z"/>
<path d="M8390 1975 c0 -8 7 -15 15 -15 8 0 15 7 15 15 0 8 -7 15 -15 15 -8 0
-15 -7 -15 -15z"/>
<path d="M8470 1890 l0 -100 115 0 c103 0 115 2 125 19 13 25 13 81 0 81 -20
0 -25 -5 -23 -25 4 -33 -7 -65 -21 -65 -10 0 -12 11 -8 45 4 43 2 46 -25 45
-5 -1 -7 -10 -5 -22 5 -30 -7 -68 -21 -68 -9 0 -13 14 -13 45 1 59 -18 63 -24
5 -4 -40 -8 -45 -32 -48 -35 -4 -43 22 -36 119 5 62 4 69 -13 69 -17 0 -19 -9
-19 -100z"/>
<path d="M8750 1891 c0 -90 2 -101 18 -101 15 0 17 11 17 97 0 85 -2 98 -17
101 -16 3 -18 -7 -18 -97z"/>
<path d="M9160 1896 c0 -66 -4 -96 -12 -99 -8 -4 -7 -6 3 -6 29 -2 37 22 41
112 3 77 1 87 -14 87 -16 0 -18 -11 -18 -94z"/>
<path d="M9220 1890 c0 -82 3 -100 15 -100 12 0 15 18 15 100 0 82 -3 100 -15
100 -12 0 -15 -18 -15 -100z"/>
<path d="M6422 1968 c6 -18 28 -21 28 -4 0 9 -7 16 -16 16 -9 0 -14 -5 -12
-12z"/>
<path d="M6460 1965 c0 -9 5 -15 11 -13 6 2 11 8 11 13 0 5 -5 11 -11 13 -6 2
-11 -4 -11 -13z"/>
<path d="M6710 1895 c0 -69 -3 -85 -15 -85 -10 0 -15 11 -15 35 0 24 -5 35
-15 35 -10 0 -15 -11 -15 -35 0 -28 -4 -35 -20 -35 -16 0 -20 7 -20 35 0 19
-4 35 -10 35 -5 0 -10 -16 -10 -35 0 -32 -2 -35 -30 -35 -29 0 -30 1 -30 48 0
48 -1 49 -32 51 -74 4 -83 2 -105 -24 -28 -32 -29 -66 -5 -89 17 -15 50 -16
313 -14 l294 3 3 98 c2 82 0 97 -13 97 -12 0 -15 -15 -15 -85 0 -78 -2 -85
-20 -85 -15 0 -20 7 -20 29 0 46 -30 61 -122 61 l-78 0 0 40 c0 22 -4 40 -10
40 -6 0 -10 -35 -10 -85z m-216 -24 c10 -11 16 -30 14 -42 -3 -21 -7 -23 -53
-20 -52 3 -67 13 -58 40 16 45 66 56 97 22z m405 -15 c6 -7 9 -21 5 -30 -5
-13 -22 -16 -90 -16 l-84 0 0 30 0 30 79 0 c54 0 82 -4 90 -14z"/>
<path d="M7020 1879 c0 -67 4 -99 11 -97 6 2 10 7 10 11 -1 4 -1 48 -1 97 0
53 -4 90 -10 90 -6 0 -10 -40 -10 -101z"/>
<path d="M7440 1880 l0 -100 53 0 c51 0 54 2 68 33 18 42 53 45 57 5 4 -31 0
-33 -29 -18 -15 8 -19 7 -19 -4 0 -9 9 -20 21 -26 16 -9 25 -8 40 6 22 20 23
33 7 68 -21 47 -79 41 -98 -10 -7 -18 -17 -24 -40 -24 l-30 0 0 85 c0 69 -3
85 -15 85 -12 0 -15 -18 -15 -100z"/>
<path d="M8138 1968 c-2 -7 -3 -46 -3 -85 1 -63 -1 -73 -16 -73 -13 0 -19 9
-21 32 -2 23 -11 36 -28 45 -32 17 -152 13 -158 -4 -3 -10 16 -13 71 -13 78 0
106 -13 93 -45 -4 -12 -26 -15 -111 -15 l-105 0 0 29 c0 59 -64 102 -118 78
-20 -9 -52 -53 -52 -72 0 -15 28 -2 33 15 7 28 46 44 80 31 22 -9 27 -17 27
-46 l0 -35 -71 0 c-52 0 -70 -3 -67 -12 4 -10 70 -14 276 -16 l272 -2 0 100
c0 60 -4 100 -10 100 -6 0 -10 -35 -10 -85 l0 -85 -30 0 -30 0 0 85 c0 47 -4
85 -9 85 -5 0 -11 -6 -13 -12z"/>
<path d="M9380 1965 c0 -8 5 -15 10 -15 6 0 10 7 10 15 0 8 -4 15 -10 15 -5 0
-10 -7 -10 -15z"/>
<path d="M9417 1974 c-8 -8 1 -24 14 -24 5 0 9 7 9 15 0 15 -12 20 -23 9z"/>
<path d="M9602 1935 c-53 -25 -91 -49 -87 -55 3 -5 39 -10 80 -10 90 0 105 -5
105 -36 0 -24 -1 -24 -105 -24 l-105 0 0 48 c0 53 4 51 -88 53 -35 1 -72 -38
-72 -76 0 -53 8 -55 196 -55 167 0 173 1 188 22 37 52 3 98 -71 99 l-48 1 51
23 c28 13 54 31 57 39 9 23 3 21 -101 -29z m-159 -57 c9 -7 19 -26 23 -41 l6
-28 -58 3 c-51 3 -59 6 -62 24 -6 43 53 70 91 42z"/>
<path d="M1905 1960 c-7 -11 2 -30 15 -30 4 0 10 6 13 14 6 16 -19 30 -28 16z"/>
<path d="M2380 1950 c-11 -11 -20 -27 -20 -35 0 -18 47 -65 64 -65 6 0 17 -10
25 -22 12 -19 11 -23 -5 -35 -15 -11 -15 -13 -2 -13 24 0 40 25 36 57 -2 19
-15 36 -45 56 -48 32 -54 53 -20 67 17 7 18 9 5 9 -10 1 -27 -8 -38 -19z"/>
<path d="M2896 1963 c-12 -12 -6 -33 9 -33 8 0 15 6 15 14 0 17 -14 28 -24 19z"/>
<path d="M3424 1961 c-30 -13 -64 -59 -64 -88 0 -29 17 -63 39 -80 25 -19 96
-16 112 5 11 14 11 15 -1 5 -19 -18 -65 -16 -84 3 -24 23 -21 109 4 134 26 26
46 25 75 -5 l25 -24 0 24 c0 15 -6 25 -14 25 -7 0 -26 2 -42 5 -16 2 -39 0
-50 -4z"/>
<path d="M153 1918 c14 -24 33 -65 42 -91 l18 -48 18 42 c20 44 25 63 9 39
-11 -17 -11 -18 -36 45 -16 41 -24 51 -48 53 l-28 3 25 -43z"/>
<path d="M274 1949 c-3 -6 -1 -15 6 -19 9 -5 11 -29 8 -79 -3 -66 -2 -71 17
-71 19 0 20 6 20 90 0 86 -1 90 -22 90 -12 0 -25 -5 -29 -11z"/>
<path d="M1390 1870 c0 -49 3 -90 8 -90 4 0 6 24 4 53 -2 30 -2 67 0 83 3 25
7 17 32 -48 17 -43 33 -78 37 -78 4 0 12 14 18 31 13 39 13 42 2 35 -5 -3 -19
19 -31 49 -18 45 -27 55 -46 55 -24 0 -24 -2 -24 -90z"/>
<path d="M1527 1943 c-2 -10 -8 -27 -12 -38 -4 -13 -1 -12 9 5 15 24 15 21 16
-52 0 -74 1 -78 23 -78 21 0 22 3 22 90 l0 90 -26 0 c-17 0 -29 -7 -32 -17z"/>
<path d="M1818 1878 c-2 -66 -6 -83 -18 -83 -24 0 -27 85 -4 102 17 12 16 13
-3 13 -41 0 -65 -64 -39 -104 12 -20 24 -24 61 -24 l45 0 0 89 c0 82 -2 89
-20 89 -17 0 -19 -8 -22 -82z"/>
<path d="M2225 1870 c0 -79 2 -90 18 -90 15 0 17 11 17 90 0 79 -2 90 -17 90
-16 0 -18 -11 -18 -90z"/>
<path d="M2451 1943 c7 -10 15 -20 16 -22 2 -2 3 5 3 17 0 14 -6 22 -16 22
-14 0 -15 -3 -3 -17z"/>
<path d="M8000 1945 c0 -8 5 -15 10 -15 6 0 10 7 10 15 0 8 -4 15 -10 15 -5 0
-10 -7 -10 -15z"/>
<path d="M9900 1944 c0 -8 5 -12 10 -9 6 3 10 10 10 16 0 5 -4 9 -10 9 -5 0
-10 -7 -10 -16z"/>
<path d="M9932 1949 c2 -6 8 -10 13 -10 5 0 11 4 13 10 2 6 -4 11 -13 11 -9 0
-15 -5 -13 -11z"/>
<path d="M1232 1919 c-14 -18 -19 -30 -12 -34 6 -4 10 -21 9 -39 -4 -59 -1
-66 29 -65 15 0 21 3 15 6 -20 7 -17 103 2 103 8 0 15 5 15 10 0 6 -6 10 -14
10 -8 0 -16 8 -18 18 -3 16 -6 15 -26 -9z"/>
<path d="M7360 1925 c0 -8 5 -15 10 -15 6 0 10 7 10 15 0 8 -4 15 -10 15 -5 0
-10 -7 -10 -15z"/>
<path d="M7397 1934 c-8 -8 1 -24 14 -24 5 0 9 7 9 15 0 15 -12 20 -23 9z"/>
<path d="M7205 1918 c-50 -27 -59 -75 -20 -113 23 -23 31 -25 130 -25 l105 0
0 50 c0 28 -4 50 -10 50 -5 0 -10 -16 -10 -35 l0 -35 -94 0 c-69 0 -97 4 -106
14 -17 22 -8 60 18 71 12 5 22 15 22 22 0 16 -9 16 -35 1z"/>
<path d="M9030 1910 c-11 -11 -20 -33 -20 -49 0 -50 -9 -61 -51 -61 l-39 0 0
43 c0 24 -5 48 -12 55 -18 18 -63 14 -81 -6 -34 -38 -11 -92 39 -92 22 0 24
-3 18 -22 -9 -32 -22 -46 -47 -51 -12 -3 -6 -4 13 -4 27 2 39 9 55 34 18 29
25 32 67 33 54 0 68 15 68 73 0 42 24 66 48 50 12 -7 17 -24 17 -54 0 -44 0
-44 -35 -42 -33 1 -34 0 -16 -13 25 -18 36 -18 64 2 27 18 31 84 6 108 -22 22
-70 20 -94 -4z m-142 -33 c6 -30 -7 -67 -23 -67 -11 0 -15 12 -15 46 0 38 3
45 17 42 10 -2 19 -11 21 -21z"/>
<path d="M256 1905 c-9 -26 -7 -32 5 -12 6 10 9 21 6 23 -2 3 -7 -2 -11 -11z"/>
<path d="M8338 1913 c9 -3 7 -12 -8 -30 -41 -53 -11 -117 55 -117 66 0 96 64
55 117 -15 18 -17 27 -8 30 7 3 -14 5 -47 5 -33 0 -54 -2 -47 -5z m83 -47 c17
-36 -1 -80 -33 -84 -33 -4 -54 40 -39 81 14 36 57 38 72 3z"/>
<path d="M386 1888 c-33 -47 -11 -108 39 -108 33 0 55 26 55 64 0 59 -63 89
-94 44z m52 0 c23 -23 12 -98 -14 -98 -10 0 -14 15 -14 55 0 56 6 65 28 43z"/>
<path d="M510 1858 c0 -29 4 -58 8 -65 4 -6 29 -11 55 -11 l48 0 -3 61 c-3 53
-6 62 -23 65 -18 2 -20 -3 -20 -54 0 -37 -4 -59 -12 -61 -10 -4 -13 12 -13 56
0 54 -2 61 -20 61 -17 0 -20 -7 -20 -52z"/>
<path d="M650 1906 c0 -2 7 -21 16 -42 9 -22 21 -50 26 -64 l10 -25 9 24 c7
18 5 34 -6 58 -9 18 -13 38 -10 43 3 6 -5 10 -19 10 -14 0 -26 -2 -26 -4z"/>
<path d="M726 1893 c3 -10 10 -27 15 -38 5 -11 13 -33 19 -50 9 -23 13 -27 19
-15 16 28 24 63 13 56 -11 -7 -22 15 -22 45 0 14 -7 19 -25 19 -19 0 -23 -4
-19 -17z"/>
<path d="M805 1900 c4 -6 11 -8 16 -5 14 9 11 15 -7 15 -8 0 -12 -5 -9 -10z"/>
<path d="M868 1899 c-22 -12 -24 -39 -3 -39 9 0 15 7 13 16 -4 22 20 30 28 9
4 -11 -6 -26 -31 -49 -39 -32 -41 -56 -7 -56 13 0 18 8 17 27 0 14 6 28 13 31
10 3 13 -4 10 -24 -2 -23 1 -30 17 -32 18 -2 20 2 16 50 -4 74 -27 94 -73 67z"/>
<path d="M992 1898 c-20 -20 -14 -43 21 -74 27 -24 29 -29 14 -32 -10 -2 -24
2 -32 8 -12 10 -15 9 -15 -4 0 -19 50 -22 68 -4 19 19 14 36 -18 65 -20 17
-27 30 -21 36 7 7 16 6 26 -3 8 -7 15 -8 15 -2 0 9 -22 22 -39 22 -4 0 -12 -5
-19 -12z"/>
<path d="M1108 1899 c-22 -12 -24 -39 -3 -39 10 0 15 7 13 18 -4 22 26 23 30
0 2 -10 -9 -23 -27 -34 -59 -35 -52 -63 17 -63 l47 1 -4 56 c-4 70 -27 88 -73
61z m42 -78 c0 -23 -16 -36 -25 -21 -9 14 1 40 15 40 5 0 10 -9 10 -19z"/>
<path d="M1648 1900 c-22 -13 -31 -60 -19 -93 8 -21 17 -27 40 -27 15 0 33 6
39 13 8 10 5 13 -16 12 -21 0 -28 5 -30 23 -3 19 1 22 27 22 35 0 41 18 13 43
-21 19 -30 20 -54 7z m40 -23 c2 -10 -3 -17 -12 -17 -10 0 -16 9 -16 21 0 24
23 21 28 -4z"/>
<path d="M1898 1845 c3 -53 7 -65 20 -65 15 0 17 10 14 65 -3 53 -7 65 -20 65
-15 0 -17 -10 -14 -65z"/>
<path d="M1987 1892 c-20 -22 -22 -83 -5 -100 15 -15 68 -16 68 -1 0 5 -4 8
-10 4 -15 -9 -42 41 -38 71 4 33 23 43 31 14 6 -22 27 -28 27 -7 0 36 -47 48
-73 19z"/>
<path d="M2108 1899 c-22 -12 -24 -39 -3 -39 8 0 15 9 15 20 0 11 7 20 15 20
11 0 14 -13 13 -57 -2 -52 0 -58 18 -61 19 -3 20 1 16 55 -6 71 -28 89 -74 62z"/>
<path d="M2525 1890 c-20 -22 -23 -74 -4 -96 15 -18 53 -18 69 1 11 13 10 14
-4 9 -19 -7 -46 12 -46 32 0 9 11 14 30 14 22 0 30 5 30 18 0 42 -45 55 -75
22z m48 -10 c4 -15 0 -20 -14 -20 -18 0 -26 20 -12 33 11 12 21 8 26 -13z"/>
<path d="M2635 1845 c0 -55 3 -65 18 -65 13 0 17 9 17 43 0 55 12 76 34 58 14
-12 16 -10 16 8 0 24 -4 25 -31 11 -13 -7 -19 -7 -19 0 0 5 -8 10 -17 10 -15
0 -18 -10 -18 -65z"/>
<path d="M2769 1845 c14 -36 28 -65 31 -65 4 0 12 17 20 38 22 54 23 60 7 34
l-14 -24 -12 30 c-7 17 -10 36 -6 41 4 7 -5 11 -23 11 l-30 0 27 -65z"/>
<path d="M2836 1895 c4 -8 7 -15 9 -15 2 0 5 7 9 15 3 9 0 15 -9 15 -9 0 -12
-6 -9 -15z"/>
<path d="M2885 1845 c0 -55 3 -65 18 -65 14 0 17 10 17 65 0 55 -3 65 -17 65
-15 0 -18 -10 -18 -65z"/>
<path d="M2970 1890 c-22 -22 -26 -60 -10 -91 11 -20 64 -27 74 -10 3 5 -2 8
-11 7 -22 -1 -47 49 -39 80 8 29 26 31 33 4 6 -22 18 -26 28 -10 9 15 -14 40
-36 40 -11 0 -28 -9 -39 -20z"/>
<path d="M3086 1891 c-21 -24 -18 -89 5 -104 18 -11 69 -2 69 13 0 5 -7 7 -15
4 -18 -7 -45 12 -45 32 0 9 12 14 35 14 39 0 42 6 19 38 -19 27 -45 28 -68 3z
m52 -14 c2 -12 -3 -17 -17 -17 -12 0 -21 6 -21 13 0 31 32 34 38 4z"/>
<path d="M3202 1898 c-20 -20 -14 -42 19 -71 17 -15 27 -31 23 -38 -4 -7 -1
-10 7 -7 8 2 15 16 17 31 2 19 -4 30 -22 43 -14 9 -26 23 -26 30 0 17 12 18
28 2 8 -8 12 -8 12 -1 0 10 -22 23 -39 23 -4 0 -12 -5 -19 -12z"/>
<path d="M3570 1890 c-24 -24 -26 -57 -4 -88 23 -34 29 -27 29 35 0 35 5 58
12 60 17 6 28 -63 14 -93 -8 -19 -8 -24 4 -24 35 0 48 85 17 113 -25 22 -48
21 -72 -3z"/>
<path d="M9868 1904 c-5 -4 -8 -27 -8 -51 0 -32 -4 -43 -15 -43 -11 0 -15 11
-15 40 0 22 -4 40 -10 40 -6 0 -10 -26 -10 -59 0 -50 -4 -62 -21 -75 -12 -8
-28 -12 -35 -9 -8 3 -14 -1 -14 -11 0 -23 46 -20 70 4 11 11 20 25 20 30 0 6
33 10 80 10 l80 0 0 66 c0 48 -3 65 -12 62 -7 -3 -14 -25 -16 -51 -2 -34 -7
-47 -19 -47 -12 0 -14 10 -11 50 2 30 -1 49 -7 47 -5 -2 -11 -25 -13 -50 -2
-32 -8 -47 -17 -47 -10 0 -15 16 -17 51 -2 28 -6 47 -10 43z"/>
<path d="M2107 1832 c-24 -26 -22 -52 4 -52 16 0 19 4 14 20 -4 12 -1 27 5 35
18 22 -4 18 -23 -3z"/>
<path d="M2360 1810 c0 -20 5 -25 27 -27 22 -1 24 1 10 8 -9 5 -21 17 -26 27
-9 15 -10 14 -11 -8z"/>
<path d="M3697 1814 c-14 -15 -6 -34 14 -34 14 0 19 5 17 17 -3 18 -20 27 -31
17z"/>
<path d="M3190 1795 c0 -8 7 -15 16 -15 14 0 14 3 4 15 -7 8 -14 15 -16 15 -2
0 -4 -7 -4 -15z"/>
<path d="M130 1790 c0 -5 5 -10 10 -10 6 0 10 5 10 10 0 6 -4 10 -10 10 -5 0
-10 -4 -10 -10z"/>
<path d="M6550 1735 c0 -8 5 -15 10 -15 6 0 10 7 10 15 0 8 -4 15 -10 15 -5 0
-10 -7 -10 -15z"/>
<path d="M6587 1744 c-8 -8 1 -24 14 -24 5 0 9 7 9 15 0 15 -12 20 -23 9z"/>
<path d="M6657 1743 c-12 -11 -8 -23 8 -23 8 0 15 7 15 15 0 16 -12 20 -23 8z"/>
</g>
</svg>
