<?xml version="1.0" standalone="no"?>
<!DOCTYPE svg PUBLIC "-//W3C//DTD SVG 20010904//EN"
 "http://www.w3.org/TR/2001/REC-SVG-20010904/DTD/svg10.dtd">
<svg version="1.0" xmlns="http://www.w3.org/2000/svg"
 width="307.000000pt" height="164.000000pt" viewBox="0 0 307.000000 164.000000"
 preserveAspectRatio="xMidYMid meet">

<g transform="translate(0.000000,164.000000) scale(0.100000,-0.100000)"
fill="#000000" stroke="none">
<path d="M340 1365 c0 -52 1 -95 3 -95 2 0 18 20 35 44 26 36 32 54 32 95 l0
51 -35 0 -35 0 0 -95z"/>
<path d="M503 1445 c-3 -9 -3 -19 1 -22 3 -4 6 1 6 10 0 8 6 18 13 20 9 4 9 6
-1 6 -7 1 -15 -6 -19 -14z"/>
<path d="M525 1430 c-3 -5 1 -10 9 -10 9 0 16 5 16 10 0 6 -4 10 -9 10 -6 0
-13 -4 -16 -10z"/>
<path d="M501 1394 c0 -11 3 -14 6 -6 3 7 2 16 -1 19 -3 4 -6 -2 -5 -13z"/>
<path d="M525 1381 c-3 -5 -1 -12 5 -16 5 -3 10 1 10 9 0 18 -6 21 -15 7z"/>
<path d="M713 1374 c-9 -4 -13 -36 -13 -110 0 -97 1 -104 20 -104 17 0 19 8
22 68 3 71 4 70 29 -30 14 -55 45 -52 59 5 26 103 28 106 29 30 1 -66 3 -73
21 -73 19 0 20 7 20 105 0 86 -3 105 -15 106 -8 1 -23 2 -32 3 -14 1 -21 -13
-31 -61 -8 -35 -17 -63 -20 -63 -4 0 -14 28 -22 63 -15 62 -30 76 -67 61z"/>
<path d="M1360 1269 c0 -102 1 -109 20 -109 17 0 20 7 20 51 0 47 2 50 23 47
19 -3 22 -10 25 -50 3 -40 6 -48 23 -48 18 0 19 8 19 105 0 98 -1 105 -20 105
-17 0 -20 -7 -20 -40 0 -36 -2 -40 -25 -40 -22 0 -25 4 -25 39 0 30 -4 40 -20
44 -19 5 -20 0 -20 -104z"/>
<path d="M483 1363 c-31 -6 -29 -19 2 -19 14 0 25 6 25 13 0 7 -1 12 -2 12 -2
-1 -13 -4 -25 -6z"/>
<path d="M1780 1265 c0 -98 1 -105 20 -105 19 0 20 7 20 105 0 98 -1 105 -20
105 -19 0 -20 -7 -20 -105z"/>
<path d="M1940 1265 c0 -97 1 -105 20 -105 16 0 19 8 22 63 2 34 8 62 13 62 6
0 11 -28 13 -62 3 -55 5 -63 23 -63 18 0 20 6 17 73 l-3 72 -32 0 c-31 0 -33
2 -33 32 0 26 -4 33 -20 33 -19 0 -20 -7 -20 -105z"/>
<path d="M180 1215 c0 -93 4 -145 10 -145 7 0 9 46 4 140 -5 122 -4 139 9 134
8 -3 18 -1 22 5 4 7 -4 11 -19 11 l-26 0 0 -145z"/>
<path d="M240 1356 c0 -11 30 -39 36 -34 2 3 -5 13 -16 23 -11 10 -20 15 -20
11z"/>
<path d="M425 1350 c-3 -5 -2 -10 4 -10 5 0 13 5 16 10 3 6 2 10 -4 10 -5 0
-13 -4 -16 -10z"/>
<path d="M560 1346 c0 -8 -6 -17 -12 -19 -8 -3 -6 -6 5 -6 11 -1 17 6 17 19 0
11 -2 20 -5 20 -3 0 -5 -6 -5 -14z"/>
<path d="M1072 1330 c-14 -15 -20 -31 -17 -49 3 -14 6 -42 9 -62 5 -47 12 -59
37 -59 20 0 26 24 9 35 -17 11 -12 82 6 89 15 6 15 8 2 24 -9 9 -17 23 -20 31
-3 11 -9 9 -26 -9z"/>
<path d="M1875 1342 c-26 -18 -37 -42 -27 -55 6 -7 12 -37 14 -67 3 -52 5 -55
31 -58 26 -3 37 11 17 23 -15 9 -13 102 3 109 8 3 7 8 -6 16 -9 6 -15 15 -12
20 7 11 -8 21 -20 12z"/>
<path d="M407 1305 c2 -11 7 -68 10 -127 l6 -108 32 0 33 0 7 104 c8 112 2
148 -21 139 -7 -3 -14 0 -14 6 0 5 -13 9 -29 8 -23 -2 -28 -6 -24 -22z"/>
<path d="M241 1304 c0 -11 3 -14 6 -6 3 7 2 16 -1 19 -3 4 -6 -2 -5 -13z"/>
<path d="M280 1305 c0 -5 9 -21 20 -35 11 -14 20 -20 20 -15 0 6 -9 21 -20 35
-11 14 -20 21 -20 15z"/>
<path d="M942 1301 c-22 -14 -27 -87 -8 -116 22 -33 68 -34 91 -2 14 20 14 22
0 25 -9 2 -22 -2 -30 -8 -16 -14 -35 -5 -35 16 0 10 12 14 41 14 40 0 40 1 35
32 -2 17 -11 35 -18 39 -17 11 -59 11 -76 0z m53 -32 c0 -7 -8 -15 -17 -17
-18 -3 -25 18 -11 32 10 10 28 1 28 -15z"/>
<path d="M1140 1234 c0 -67 2 -74 20 -74 17 0 20 7 20 50 0 39 4 53 20 62 32
20 24 36 -20 36 l-40 1 0 -75z"/>
<path d="M1230 1284 c-25 -64 0 -124 50 -124 36 0 60 32 60 80 -1 49 -20 70
-64 70 -30 0 -38 -5 -46 -26z m68 -50 c-2 -27 -8 -39 -18 -39 -19 0 -26 61 -9
81 18 22 31 2 27 -42z"/>
<path d="M1531 1296 c-16 -19 -16 -102 -1 -121 16 -20 64 -19 84 1 22 21 20
34 -4 34 -11 0 -20 -4 -20 -10 0 -15 -27 -12 -33 4 -8 20 2 26 40 26 27 0 33
4 33 21 0 39 -19 59 -54 59 -19 0 -39 -6 -45 -14z m56 -21 c7 -20 -2 -29 -21
-22 -9 4 -13 13 -10 22 8 19 23 19 31 0z"/>
<path d="M1663 1303 c-21 -8 -15 -33 7 -33 11 0 20 5 20 11 0 6 6 9 13 7 6 -3
12 -11 12 -19 0 -8 -6 -15 -12 -15 -7 -1 -20 -2 -28 -3 -20 -1 -35 -40 -25
-66 6 -16 17 -20 59 -22 l51 -2 0 63 c0 35 -5 67 -12 74 -12 12 -62 15 -85 5z
m57 -87 c0 -7 -6 -19 -14 -25 -11 -9 -15 -8 -20 5 -3 9 -4 20 0 25 8 14 34 11
34 -5z"/>
<path d="M375 1280 c-3 -5 -1 -10 4 -10 6 0 11 5 11 10 0 6 -2 10 -4 10 -3 0
-8 -4 -11 -10z"/>
<path d="M240 1261 c0 -6 4 -13 10 -16 6 -3 7 1 4 9 -7 18 -14 21 -14 7z"/>
<path d="M395 1240 c6 -10 4 -12 -8 -7 -10 4 -14 2 -12 -6 2 -7 -7 -25 -21
-42 -25 -29 -25 -29 -19 -5 7 24 7 24 -8 5 -15 -19 -14 -35 2 -35 5 0 25 20
45 44 25 31 33 47 25 52 -8 5 -9 3 -4 -6z"/>
<path d="M519 1218 c-8 -27 -5 -38 12 -38 12 0 19 7 19 20 0 11 -7 20 -15 20
-8 0 -15 -1 -16 -2z"/>
<path d="M561 1204 c0 -11 3 -14 6 -6 3 7 2 16 -1 19 -3 4 -6 -2 -5 -13z"/>
<path d="M226 1085 c-18 -14 -18 -14 1 -12 11 0 20 7 20 14 0 7 -1 13 -1 13
-1 0 -9 -7 -20 -15z"/>
<path d="M180 485 l0 -215 175 0 175 0 0 215 0 215 -175 0 -175 0 0 -215z
m110 200 c-8 -2 -32 -6 -52 -10 l-37 -6 6 -107 c5 -97 13 -121 35 -122 4 0 1
21 -7 48 -20 64 -17 66 9 7 l23 -49 8 54 9 55 5 -54 6 -55 19 58 c26 77 39 81
15 4 -11 -33 -18 -63 -16 -64 2 -2 27 28 56 67 29 39 55 68 58 65 3 -3 -18
-36 -46 -74 -28 -38 -51 -72 -51 -76 0 -4 25 12 55 35 31 23 57 40 60 37 2 -2
-24 -26 -58 -52 -34 -27 -54 -46 -45 -43 40 14 100 28 104 25 2 -3 -20 -13
-49 -24 l-52 -19 50 -6 50 -6 -50 -2 -50 -3 50 -19 c48 -18 48 -19 12 -13 -21
3 -45 8 -53 11 -12 4 -13 1 -3 -19 10 -23 17 -25 80 -27 76 -2 75 -4 82 84 2
25 4 14 5 -27 l2 -68 -165 0 -165 0 0 200 0 200 58 -1 c31 -1 50 -3 42 -4z"/>
<path d="M210 376 c0 -63 1 -65 28 -71 42 -9 102 -3 102 11 0 25 -54 83 -102
109 l-28 16 0 -65z"/>
<path d="M2121 556 c1 -47 5 -86 10 -86 12 0 11 157 -1 165 -7 4 -10 -24 -9
-79z"/>
<path d="M627 612 c-38 -42 -30 -109 15 -133 l21 -12 -21 28 c-26 32 -28 81
-6 113 18 27 13 29 -9 4z"/>
<path d="M742 616 c7 -8 15 -12 17 -11 5 6 -10 25 -20 25 -5 0 -4 -6 3 -14z"/>
<path d="M1163 551 c18 -44 35 -77 40 -72 4 4 -2 26 -13 49 -11 23 -23 56 -27
72 -3 17 -11 30 -18 30 -9 0 -3 -25 18 -79z"/>
<path d="M1262 550 c17 -44 33 -79 35 -76 8 8 -42 156 -53 156 -8 0 0 -31 18
-80z"/>
<path d="M2200 615 c7 -8 10 -24 7 -35 -7 -26 -1 -26 13 1 12 21 -1 49 -22 49
-6 0 -5 -7 2 -15z"/>
<path d="M940 596 c0 -2 7 -7 16 -10 8 -3 12 -2 9 4 -6 10 -25 14 -25 6z"/>
<path d="M827 575 c-4 -8 -2 -15 3 -15 6 0 15 -20 22 -45 7 -25 18 -45 25 -45
8 0 4 19 -13 58 -31 68 -30 67 -37 47z"/>
<path d="M1008 530 c-2 -42 1 -60 9 -60 8 0 11 19 10 60 -3 77 -14 77 -19 0z"/>
<path d="M1385 530 c0 -33 3 -60 8 -60 4 0 7 27 7 60 0 33 -3 60 -7 60 -5 0
-8 -27 -8 -60z"/>
<path d="M1487 583 c-10 -9 -9 -43 2 -43 4 0 20 -11 35 -25 15 -13 26 -19 26
-11 0 7 -14 22 -31 35 -18 13 -28 28 -25 37 6 15 3 18 -7 7z"/>
<path d="M1605 530 c0 -33 4 -60 10 -60 6 0 10 27 10 60 0 33 -4 60 -10 60 -6
0 -10 -27 -10 -60z"/>
<path d="M1648 583 c7 -3 16 -2 19 1 4 3 -2 6 -13 5 -11 0 -14 -3 -6 -6z"/>
<path d="M1701 530 c0 -33 4 -60 10 -60 5 0 9 27 9 60 0 33 -4 60 -9 60 -5 0
-10 -27 -10 -60z"/>
<path d="M1810 530 c0 -33 4 -60 10 -60 6 0 10 27 10 60 0 33 -4 60 -10 60 -6
0 -10 -27 -10 -60z"/>
<path d="M1874 566 c0 -13 4 -22 9 -19 10 6 9 31 -2 37 -5 3 -8 -5 -7 -18z"/>
<path d="M1927 579 c6 -6 10 -17 9 -23 -2 -6 -1 -7 2 -3 2 5 26 -13 53 -39 27
-27 49 -43 49 -38 0 14 -100 114 -113 114 -7 0 -7 -4 0 -11z"/>
<path d="M2030 579 c0 -5 5 -7 10 -4 6 3 10 8 10 11 0 2 -4 4 -10 4 -5 0 -10
-5 -10 -11z"/>
<path d="M2268 530 c5 -78 17 -78 17 0 0 33 -4 60 -10 60 -6 0 -9 -24 -7 -60z"/>
<path d="M2366 574 c-4 -9 5 -25 23 -42 16 -15 31 -34 34 -42 3 -9 6 -5 6 10
1 18 -8 30 -29 42 -20 11 -28 22 -24 32 3 9 4 16 1 16 -3 0 -8 -7 -11 -16z"/>
<path d="M2465 530 c0 -33 4 -60 10 -60 6 0 10 27 10 60 0 33 -4 60 -10 60 -6
0 -10 -27 -10 -60z"/>
<path d="M2570 530 c0 -38 4 -60 11 -60 7 0 9 10 7 25 -3 14 -2 25 1 25 4 0 5
16 3 35 -7 57 -22 40 -22 -25z"/>
<path d="M2637 569 c4 -14 0 -26 -10 -34 -16 -11 -15 -14 4 -39 11 -14 25 -26
30 -26 6 0 1 12 -11 27 -14 18 -17 30 -10 37 12 12 13 43 1 50 -5 4 -7 -4 -4
-15z"/>
<path d="M2697 530 c17 -39 29 -56 34 -48 4 7 4 15 -1 18 -4 3 -16 24 -25 48
-10 23 -21 42 -25 42 -5 0 3 -27 17 -60z"/>
<path d="M2815 530 c0 -33 4 -60 10 -60 6 0 10 27 10 60 0 33 -4 60 -10 60 -6
0 -10 -27 -10 -60z"/>
<path d="M911 563 c-1 -15 8 -27 28 -38 16 -8 31 -20 34 -27 4 -8 6 -7 6 4 1
10 -12 24 -28 33 -16 8 -32 23 -34 32 -4 14 -5 13 -6 -4z"/>
<path d="M2192 503 c20 -48 42 -73 62 -73 6 0 3 5 -6 11 -10 5 -27 32 -39 59
-12 28 -25 50 -30 50 -4 0 1 -21 13 -47z"/>
<path d="M1870 500 c27 -39 34 -39 12 0 -9 16 -21 30 -25 30 -5 0 1 -13 13
-30z"/>
<path d="M1932 500 c0 -19 2 -27 5 -17 2 9 2 25 0 35 -3 9 -5 1 -5 -18z"/>
<path d="M750 493 c0 -6 -12 -16 -27 -21 -16 -6 -21 -11 -12 -11 20 -1 56 25
46 35 -4 4 -7 2 -7 -3z"/>
<path d="M785 489 c-4 -6 -5 -12 -2 -15 2 -3 7 2 10 11 7 17 1 20 -8 4z"/>
</g>
</svg>
