<?xml version="1.0" standalone="no"?>
<!DOCTYPE svg PUBLIC "-//W3C//DTD SVG 20010904//EN"
 "http://www.w3.org/TR/2001/REC-SVG-20010904/DTD/svg10.dtd">
<svg version="1.0" xmlns="http://www.w3.org/2000/svg"
 width="220.000000pt" height="150.000000pt" viewBox="0 0 220.000000 150.000000"
 preserveAspectRatio="xMidYMid meet">

<g transform="translate(0.000000,150.000000) scale(0.100000,-0.100000)"
fill="#000000" stroke="none">
<path d="M1030 1135 c0 -96 -3 -175 -8 -175 -4 0 -38 41 -75 90 l-67 90 -65 0
-65 0 0 -260 0 -260 65 0 64 0 3 148 3 147 69 -92 70 -92 66 89 c37 49 70 87
74 83 3 -3 6 -71 6 -150 l0 -143 65 0 65 0 0 70 0 70 70 0 70 0 0 280 0 280
-65 0 -65 0 0 -85 0 -85 -75 0 -75 0 0 85 0 85 -65 0 -65 0 0 -175z"/>
<path d="M147 464 c-4 -4 -7 -67 -7 -141 l0 -133 30 0 30 0 1 103 1 102 26
-100 c25 -93 29 -100 54 -103 29 -3 25 -13 62 131 8 33 17 62 20 65 3 3 6 -40
6 -96 l0 -102 25 0 25 0 0 140 0 140 -40 0 c-46 0 -50 -6 -75 -108 -9 -40 -19
-71 -22 -69 -2 3 -14 42 -26 88 l-22 84 -40 3 c-23 2 -44 0 -48 -4z"/>
<path d="M1087 464 c-4 -4 -7 -67 -7 -141 l0 -133 30 0 c29 0 29 1 32 63 3 62
3 62 33 62 30 0 30 0 33 -62 3 -63 3 -63 33 -63 l30 0 -3 138 -3 137 -25 0
c-23 0 -25 -4 -28 -52 -3 -53 -3 -53 -37 -53 -34 0 -34 0 -37 53 -3 44 -6 52
-23 55 -12 2 -24 0 -28 -4z"/>
<path d="M1707 463 c-4 -3 -7 -66 -7 -140 l0 -133 25 0 25 0 0 140 c0 129 -1
140 -18 140 -10 0 -22 -3 -25 -7z"/>
<path d="M1907 464 c-4 -4 -7 -68 -7 -141 l0 -134 28 3 c26 3 27 5 32 83 4 62
8 80 20 80 12 0 16 -17 18 -83 l3 -83 27 3 c26 3 27 6 30 68 2 35 1 75 -3 87
-8 32 -41 48 -71 34 -22 -10 -23 -8 -26 37 -2 38 -7 48 -23 50 -12 2 -24 0
-28 -4z"/>
<path d="M673 423 c-7 -2 -13 -11 -13 -18 0 -8 -8 -19 -17 -24 -17 -10 -17
-12 0 -25 13 -10 17 -28 17 -79 0 -70 11 -87 59 -87 24 0 28 25 6 34 -11 4
-15 21 -15 66 0 47 3 60 15 60 8 0 15 7 15 15 0 8 -7 15 -15 15 -9 0 -15 9
-15 25 0 24 -11 29 -37 18z"/>
<path d="M1818 423 c-10 -2 -18 -13 -18 -24 0 -10 -4 -19 -10 -19 -5 0 -10 -7
-10 -15 0 -8 5 -15 10 -15 6 0 10 -30 10 -70 0 -74 11 -90 59 -90 24 0 28 25
6 34 -11 4 -15 21 -15 66 0 47 3 60 15 60 8 0 15 6 15 14 0 8 -7 16 -15 20 -8
3 -15 15 -15 26 0 20 -2 21 -32 13z"/>
<path d="M503 380 c-29 -12 -43 -41 -43 -90 0 -42 14 -79 34 -92 6 -4 28 -8
49 -8 39 0 77 27 77 55 0 23 -39 18 -59 -7 -21 -25 -41 -17 -41 18 0 22 4 24
50 24 l50 0 0 33 c0 20 -8 41 -18 50 -23 21 -70 29 -99 17z m67 -56 c0 -8 -10
-14 -25 -14 -18 0 -25 5 -25 19 0 11 6 21 13 24 15 6 37 -11 37 -29z"/>
<path d="M832 374 c-12 -8 -22 -10 -22 -5 0 6 -11 11 -25 11 -25 0 -25 0 -25
-95 0 -95 0 -95 25 -95 24 0 25 3 25 56 0 60 13 94 35 94 9 0 15 10 15 25 0
30 1 29 -28 9z"/>
<path d="M923 380 c-29 -12 -43 -41 -43 -90 0 -42 14 -79 34 -92 23 -16 86 -8
106 12 27 27 29 129 2 153 -23 21 -70 29 -99 17z m65 -86 c2 -36 -1 -54 -12
-63 -21 -17 -33 -7 -40 33 -10 52 2 88 28 84 18 -3 21 -11 24 -54z"/>
<path d="M1360 383 c-39 -15 -50 -36 -50 -95 0 -72 21 -98 78 -98 39 0 82 31
82 58 0 21 -47 13 -64 -10 -15 -23 -16 -23 -31 -4 -28 36 -19 46 40 46 54 0
55 1 55 29 0 16 -8 38 -17 50 -19 22 -67 34 -93 24z m50 -42 c15 -28 13 -31
-20 -31 -31 0 -39 17 -18 38 17 17 26 15 38 -7z"/>
<path d="M1534 381 c-12 -5 -24 -19 -27 -30 -4 -17 -1 -21 20 -21 14 0 31 7
38 17 14 19 35 9 35 -18 0 -15 -7 -19 -34 -19 -42 0 -66 -22 -66 -60 0 -50 56
-80 88 -48 10 10 15 10 21 -1 5 -7 17 -11 27 -9 17 3 18 12 16 83 -2 46 -9 85
-16 93 -16 17 -75 24 -102 13z m64 -123 c-2 -25 -8 -33 -23 -33 -26 0 -32 35
-9 52 28 20 36 16 32 -19z"/>
</g>
</svg>
