<?xml version="1.0" standalone="no"?>
<!DOCTYPE svg PUBLIC "-//W3C//DTD SVG 20010904//EN"
 "http://www.w3.org/TR/2001/REC-SVG-20010904/DTD/svg10.dtd">
<svg version="1.0" xmlns="http://www.w3.org/2000/svg"
 width="225.000000pt" height="225.000000pt" viewBox="0 0 225.000000 225.000000"
 preserveAspectRatio="xMidYMid meet">

<g transform="translate(0.000000,225.000000) scale(0.100000,-0.100000)"
fill="#000000" stroke="none">
<path d="M1571 2215 c-35 -8 -92 -27 -126 -44 -63 -29 -165 -99 -165 -113 0
-4 -33 11 -74 33 -89 48 -152 67 -254 79 -142 16 -305 -24 -421 -102 -127 -85
-221 -282 -221 -463 0 -172 109 -464 254 -677 51 -77 160 -209 176 -216 4 -1
10 46 14 105 4 59 9 125 13 146 l6 38 69 -3 70 -3 -1 -222 c-1 -124 2 -224 7
-227 12 -7 261 118 337 170 52 36 104 74 281 209 245 186 511 467 587 620 37
76 60 180 54 248 -9 102 -81 188 -182 216 -57 16 -211 14 -277 -4 -60 -15
-213 -87 -293 -137 -268 -170 -445 -435 -488 -734 l-12 -89 -73 -3 c-54 -2
-72 0 -72 10 0 31 42 181 76 273 44 119 45 153 9 226 -40 78 -90 136 -159 182
l-61 39 50 -6 c96 -12 185 -72 234 -158 l28 -48 26 37 c117 169 509 435 703
479 108 24 273 16 372 -18 39 -13 72 -21 72 -17 0 4 -26 28 -57 53 -144 114
-328 158 -502 121z m-515 -353 c33 -43 -5 -122 -59 -122 -81 0 -107 114 -33
145 34 15 71 5 92 -23z m579 -67 c20 -8 44 -29 56 -50 19 -32 24 -35 70 -35
36 0 49 4 49 14 0 8 -9 18 -20 21 -23 7 -26 25 -8 43 18 18 83 14 109 -7 22
-18 22 -19 6 -45 l-17 -26 51 0 c43 0 50 3 45 16 -10 27 21 64 53 64 34 0 54
-20 54 -57 0 -51 -8 -52 -385 -53 -276 0 -349 3 -346 12 3 7 21 14 41 16 42 4
46 13 16 43 -11 11 -18 23 -16 26 12 11 48 -10 64 -38 14 -23 24 -29 50 -29
38 0 53 22 35 51 -16 25 -15 28 11 39 31 12 43 12 82 -5z m-225 -355 l0 -80
35 0 c32 0 35 2 35 29 0 37 23 61 59 61 36 0 65 -32 59 -65 -5 -23 -3 -25 33
-25 l39 0 0 80 c0 64 3 80 15 80 12 0 15 -17 15 -95 l0 -95 -67 -1 c-38 0
-167 0 -288 1 l-220 0 -22 26 c-26 29 -31 84 -8 84 8 0 15 -8 15 -18 0 -10 7
-28 16 -40 12 -18 25 -22 65 -22 l49 0 0 40 c0 33 3 40 20 40 17 0 20 -7 20
-40 l0 -40 45 0 45 0 1 65 c1 36 3 70 4 75 1 6 3 12 4 15 0 3 8 5 16 5 12 0
15 -16 15 -80z m370 -15 c0 -78 -3 -95 -15 -95 -12 0 -15 17 -15 95 0 78 3 95
15 95 12 0 15 -17 15 -95z m-259 72 c-1 -12 -15 -9 -19 4 -3 6 1 10 8 8 6 -3
11 -8 11 -12z m49 -3 c0 -8 -4 -12 -10 -9 -5 3 -10 10 -10 16 0 5 5 9 10 9 6
0 10 -7 10 -16z m-370 -219 c0 -8 -4 -15 -10 -15 -5 0 -10 7 -10 15 0 8 5 15
10 15 6 0 10 -7 10 -15z m280 -170 l0 -95 -131 0 -130 0 -33 -35 c-34 -35 -66
-46 -66 -22 0 8 11 19 25 25 31 14 32 32 2 32 -30 0 -47 18 -47 50 0 68 85 78
105 12 7 -24 15 -32 32 -32 19 0 23 5 23 28 0 59 50 86 94 51 22 -17 27 -28
24 -50 -4 -28 -3 -29 34 -29 l38 0 0 80 c0 64 3 80 15 80 12 0 15 -17 15 -95z
m80 0 c0 -78 -3 -95 -15 -95 -12 0 -15 17 -15 95 0 78 3 95 15 95 12 0 15 -17
15 -95z m-260 75 c0 -5 -4 -10 -10 -10 -5 0 -10 5 -10 10 0 6 5 10 10 10 6 0
10 -4 10 -10z m50 0 c0 -5 -4 -10 -10 -10 -5 0 -10 5 -10 10 0 6 5 10 10 10 6
0 10 -4 10 -10z m-631 -75 c30 -15 58 -66 46 -85 -4 -6 -15 2 -29 22 -23 35
-66 51 -66 25 0 -8 7 -17 15 -21 21 -8 19 -59 -2 -84 -47 -55 -143 -13 -143
63 0 19 4 35 9 35 13 0 33 -28 27 -38 -3 -5 2 -19 10 -31 18 -26 51 -25 68 1
9 14 6 21 -12 33 -28 21 -28 59 0 79 28 20 41 20 77 1z m306 9 c27 -11 38 -53
20 -80 -13 -20 -24 -24 -65 -24 -28 0 -50 5 -50 10 0 6 5 10 10 10 6 0 8 10 4
24 -4 17 1 31 15 45 22 22 38 25 66 15z"/>
<path d="M1573 1754 c-7 -19 20 -49 36 -40 6 4 11 18 11 32 0 17 -5 24 -20 24
-11 0 -23 -7 -27 -16z"/>
<path d="M1832 1754 c9 -10 24 -14 33 -10 23 9 9 26 -23 26 -24 0 -25 -1 -10
-16z"/>
<path d="M2012 1738 c2 -12 10 -23 18 -23 22 0 19 39 -3 43 -15 3 -18 -1 -15
-20z"/>
<path d="M1645 1740 c-8 -14 3 -30 21 -30 16 0 16 2 8 24 -7 18 -20 21 -29 6z"/>
<path d="M1523 1409 c-16 -16 -5 -39 19 -39 14 0 19 6 16 22 -4 25 -19 33 -35
17z"/>
<path d="M1297 1087 c-3 -8 -2 -20 3 -27 11 -18 42 -4 38 17 -4 22 -34 29 -41
10z"/>
<path d="M1137 1083 c-15 -14 -7 -43 12 -43 26 0 36 17 21 35 -14 16 -23 19
-33 8z"/>
<path d="M983 1079 c-15 -15 -5 -39 17 -39 22 0 32 24 17 39 -6 6 -14 11 -17
11 -3 0 -11 -5 -17 -11z"/>
<path d="M336 2086 c-122 -94 -193 -216 -217 -372 -10 -68 -9 -94 5 -179 59
-353 165 -582 403 -868 132 -158 241 -263 362 -345 92 -64 252 -146 352 -181
34 -12 45 -20 31 -20 -27 -1 -172 54 -259 97 -370 187 -721 602 -857 1012 -53
160 -69 250 -69 380 0 102 4 126 31 205 31 94 82 189 129 246 26 31 26 31 4
20 -13 -7 -51 -41 -85 -74 -65 -66 -126 -174 -145 -257 -18 -78 -13 -212 13
-334 73 -343 230 -621 525 -929 193 -203 502 -371 726 -397 77 -9 114 -6 313
26 63 10 61 24 -2 17 -273 -28 -674 178 -941 484 -223 254 -350 491 -422 783
-31 123 -37 298 -14 390 19 80 85 211 137 276 25 31 44 58 41 60 -2 2 -30 -16
-61 -40z"/>
<path d="M2100 1384 c-227 -331 -538 -615 -873 -799 -37 -21 -66 -40 -63 -42
8 -9 169 53 268 103 258 129 492 352 639 609 41 71 112 225 106 231 -2 2 -36
-44 -77 -102z"/>
<path d="M2182 1337 c-157 -329 -395 -576 -712 -741 -58 -30 -147 -69 -199
-87 -52 -18 -90 -34 -83 -37 17 -5 170 25 243 49 187 61 335 154 484 304 128
129 203 243 264 399 34 89 75 236 65 236 -1 0 -29 -55 -62 -123z"/>
</g>
</svg>
