<?xml version="1.0" standalone="no"?>
<!DOCTYPE svg PUBLIC "-//W3C//DTD SVG 20010904//EN"
 "http://www.w3.org/TR/2001/REC-SVG-20010904/DTD/svg10.dtd">
<svg version="1.0" xmlns="http://www.w3.org/2000/svg"
 width="500.000000pt" height="320.000000pt" viewBox="0 0 500.000000 320.000000"
 preserveAspectRatio="xMidYMid meet">

<g transform="translate(0.000000,320.000000) scale(0.100000,-0.100000)"
fill="#000000" stroke="none">
<path d="M626 1853 c-3 -15 -19 -113 -36 -218 -41 -262 -37 -250 -62 -192
l-21 47 -64 0 c-63 0 -66 1 -102 40 -20 22 -43 40 -51 40 -8 0 -31 -17 -52
-37 -26 -26 -50 -39 -80 -44 l-43 -6 41 -2 c33 -1 48 6 81 34 23 19 47 35 53
35 7 0 32 -18 56 -40 40 -37 48 -40 99 -40 l55 0 26 -52 c34 -67 35 -65 69
157 15 94 29 181 33 195 5 22 7 21 13 -15 4 -22 20 -133 35 -247 15 -115 31
-208 36 -208 5 0 6 10 3 23 -3 12 -21 141 -41 287 -19 145 -37 266 -39 268 -2
2 -6 -9 -9 -25z"/>
<path d="M1806 1833 c-3 -15 -19 -111 -36 -213 -17 -102 -36 -196 -41 -209 -6
-15 -6 -28 0 -34 10 -10 11 -10 46 193 31 178 36 202 40 198 2 -2 18 -104 35
-228 18 -124 37 -229 42 -235 7 -6 8 1 4 20 -3 17 -22 143 -42 280 -20 138
-37 251 -39 253 -2 2 -6 -9 -9 -25z"/>
<path d="M2982 1727 c-11 -67 -28 -168 -38 -224 -10 -57 -20 -103 -23 -103 -3
0 -15 17 -26 38 -20 36 -21 37 -86 40 -60 3 -69 6 -99 37 -19 19 -43 35 -53
35 -11 0 -37 -16 -58 -35 -35 -31 -45 -35 -95 -35 -54 0 -60 3 -105 45 -26 24
-59 47 -74 51 -36 9 -97 -10 -177 -57 -60 -35 -73 -39 -137 -39 -39 0 -71 -3
-71 -7 0 -5 34 -7 76 -5 64 3 85 9 132 36 78 45 146 70 175 62 14 -3 48 -27
77 -53 48 -43 57 -47 105 -47 45 -1 59 4 93 32 23 17 48 32 58 32 9 0 34 -16
55 -35 35 -32 45 -35 98 -35 l59 0 31 -52 c19 -35 32 -48 35 -38 3 8 20 100
37 204 24 133 35 182 41 165 4 -13 21 -118 37 -233 28 -187 41 -256 41 -200
-1 28 -78 535 -82 540 -3 2 -14 -51 -26 -119z"/>
<path d="M4198 1830 c-4 -8 -23 -110 -42 -227 -20 -117 -39 -219 -42 -227 -3
-7 -1 -17 4 -20 8 -5 72 321 72 366 0 9 4 19 8 22 5 3 24 -100 42 -229 19
-129 37 -231 41 -227 3 4 -11 120 -32 259 -48 321 -44 301 -51 283z"/>
<path d="M1043 1575 c-18 -8 -54 -29 -80 -47 -41 -28 -59 -34 -122 -38 -41 -3
-76 -9 -78 -15 -2 -6 24 -8 70 -5 59 4 81 11 122 37 66 42 134 73 163 73 15 0
45 -20 81 -55 54 -52 61 -55 108 -55 42 0 57 6 94 35 24 19 53 35 65 35 11 0
35 -16 54 -35 31 -32 38 -35 95 -35 61 0 61 0 79 -36 9 -20 19 -34 22 -31 3 2
-3 20 -12 40 -16 34 -18 35 -86 39 -65 3 -71 6 -104 41 -19 20 -42 37 -51 37
-9 0 -33 -16 -54 -35 -36 -32 -44 -35 -101 -35 -61 0 -62 0 -108 50 -41 44
-51 50 -86 50 -21 -1 -54 -7 -71 -15z"/>
<path d="M3430 1558 c-14 -7 -50 -26 -81 -44 -44 -26 -72 -35 -135 -41 -65 -7
-79 -11 -80 -26 -1 -12 -1 -13 3 -2 3 12 21 15 75 15 62 0 76 4 131 36 70 41
128 64 163 64 14 0 46 -20 79 -50 53 -48 57 -50 114 -50 53 0 64 4 101 35 23
19 46 35 50 35 5 0 30 -18 55 -40 42 -37 51 -40 104 -40 56 0 58 -1 75 -36 9
-20 19 -34 22 -31 3 3 -4 23 -16 46 l-20 41 -66 0 c-63 0 -67 1 -105 40 -22
22 -43 40 -47 40 -4 0 -30 -19 -57 -41 -49 -40 -51 -41 -110 -36 -53 5 -64 10
-90 40 -16 19 -40 40 -52 46 -27 14 -80 13 -113 -1z"/>
<path d="M4675 1563 c-38 -8 -80 -26 -135 -58 -44 -26 -70 -34 -129 -38 -70
-6 -91 -16 -91 -42 1 -5 5 -2 11 8 8 13 24 17 75 17 57 0 74 5 124 34 81 48
149 71 184 62 15 -4 49 -27 75 -51 32 -30 57 -45 75 -45 14 0 26 5 26 10 0 6
-15 10 -33 10 -25 0 -42 9 -68 36 -29 31 -81 67 -91 63 -2 -1 -12 -3 -23 -6z"/>
</g>
</svg>
